PathFileType	4	(X/Y/Z)	 2.2Hz3min.trc
DataRate	CameraRate	NumFrames	NumMarkers	Units	OrigDataRate	OrigDataStartFrame	OrigNumFrames
200	200	10	39	m	200	501	1000
Frame#	Time	C7			LSH			RSH			MAN			RASI			LASI			HIPR			HIPL			RPSI			LPSI			COX			RTHI1			RTHI2			RTHI3			RTHI4			RLKN			RMKN			RSHA1			RSHA2			RSHA3			RSHA4			RHEEL			RMET5			RMET1			RTOE			LTHI1			LTHI2			LTHI3			LTHI4			LLKN			LMKN			LSHA1			LSHA2			LSHA3			LSHA4			LHEEL			LMET5			LMET1			LTOE			
		X1	Y1	Z1	X2	Y2	Z2	X3	Y3	Z3	X4	Y4	Z4	X5	Y5	Z5	X6	Y6	Z6	X7	Y7	Z7	X8	Y8	Z8	X9	Y9	Z9	X10	Y10	Z10	X11	Y11	Z11	X12	Y12	Z12	X13	Y13	Z13	X14	Y14	Z14	X15	Y15	Z15	X16	Y16	Z16	X17	Y17	Z17	X18	Y18	Z18	X19	Y19	Z19	X20	Y20	Z20	X21	Y21	Z21	X22	Y22	Z22	X23	Y23	Z23	X24	Y24	Z24	X25	Y25	Z25	X26	Y26	Z26	X27	Y27	Z27	X28	Y28	Z28	X29	Y29	Z29	X30	Y30	Z30	X31	Y31	Z31	X32	Y32	Z32	X33	Y33	Z33	X34	Y34	Z34	X35	Y35	Z35	X36	Y36	Z36	X37	Y37	Z37	X38	Y38	Z38	X39	Y39	Z39	
501	2.5050	-0.361929	1.564827	-0.533439	-0.308096	1.562783	-0.705996	-0.330577	1.562242	-0.348130	-0.212070	1.520445	-0.530263	-0.215942	1.052441	-0.412584	-0.218526	1.058097	-0.652508	-0.292684	1.127336	-0.366676	-0.287032	1.125253	-0.695069	-0.387482	1.117240	-0.486103	-0.389570	1.122541	-0.574727	-0.386825	1.122844	-0.527671	-0.312700	0.866731	-0.340587	-0.303567	0.808138	-0.333478	-0.239407	0.817032	-0.325468	-0.241284	0.878316	-0.333670	-0.288954	0.539700	-0.356637	-0.256001	0.526169	-0.472792	-0.366453	0.423771	-0.342189	-0.376909	0.383747	-0.352218	-0.317624	0.373446	-0.343167	-0.310286	0.412700	-0.337349	-0.429654	0.158708	-0.435769	-0.306016	0.053893	-0.360823	-0.245231	0.064644	-0.417302	-0.220471	0.054340	-0.406734	-0.326035	0.875728	-0.728683	-0.311130	0.816912	-0.740673	-0.247940	0.828446	-0.748335	-0.254083	0.887622	-0.737797	-0.312163	0.548615	-0.727156	-0.271207	0.536475	-0.609659	-0.383788	0.417250	-0.740903	-0.393895	0.378495	-0.734979	-0.333360	0.367431	-0.749251	-0.331606	0.411475	-0.753779	-0.443990	0.152484	-0.669288	-0.315563	0.061020	-0.756883	-0.256011	0.069045	-0.701621	-0.234464	0.056018	-0.714362	
502	2.5100	-0.362230	1.566813	-0.533211	-0.308451	1.565173	-0.705607	-0.330750	1.564345	-0.348040	-0.211828	1.522724	-0.529938	-0.215942	1.054591	-0.412655	-0.218605	1.060235	-0.652370	-0.292516	1.129715	-0.366725	-0.286879	1.127773	-0.695027	-0.387525	1.120013	-0.486161	-0.389673	1.125285	-0.574769	-0.386857	1.125634	-0.527709	-0.312551	0.868935	-0.340441	-0.303527	0.810289	-0.333477	-0.239301	0.819001	-0.325916	-0.241070	0.880339	-0.334020	-0.289185	0.541548	-0.356866	-0.256779	0.528229	-0.473161	-0.366587	0.425494	-0.342186	-0.377031	0.385404	-0.352280	-0.317667	0.375242	-0.343327	-0.310392	0.414470	-0.337466	-0.429518	0.160175	-0.436111	-0.305617	0.056897	-0.359544	-0.244678	0.067100	-0.415972	-0.219888	0.056999	-0.405241	-0.325957	0.878012	-0.728621	-0.311126	0.819162	-0.740550	-0.247891	0.830564	-0.747968	-0.253940	0.889744	-0.737458	-0.312004	0.550582	-0.726918	-0.271228	0.538493	-0.609447	-0.383601	0.419198	-0.740551	-0.393754	0.380449	-0.734629	-0.333237	0.369313	-0.748927	-0.331427	0.413364	-0.753454	-0.443401	0.153808	-0.668436	-0.315015	0.064186	-0.757940	-0.255125	0.071939	-0.703122	-0.233590	0.059090	-0.716114	
503	2.5150	-0.362519	1.568553	-0.532993	-0.308811	1.567265	-0.705255	-0.330888	1.566154	-0.347907	-0.211452	1.524735	-0.529581	-0.215967	1.056446	-0.412750	-0.218720	1.062074	-0.652216	-0.292307	1.131762	-0.366755	-0.286749	1.129898	-0.694984	-0.387590	1.122457	-0.486190	-0.389813	1.127707	-0.574795	-0.386926	1.128100	-0.527725	-0.312311	0.870858	-0.340246	-0.303377	0.812179	-0.333414	-0.239084	0.820720	-0.326393	-0.240767	0.882090	-0.334395	-0.289272	0.543156	-0.357101	-0.257461	0.530059	-0.473520	-0.366690	0.427054	-0.342203	-0.377127	0.386961	-0.352334	-0.317719	0.376839	-0.343538	-0.310460	0.416067	-0.337650	-0.429545	0.161477	-0.436363	-0.305215	0.059729	-0.358421	-0.244246	0.069433	-0.414870	-0.219409	0.059459	-0.404016	-0.325739	0.879929	-0.728660	-0.310939	0.821052	-0.740516	-0.247663	0.832353	-0.747627	-0.253651	0.891526	-0.737140	-0.311782	0.552313	-0.726721	-0.271044	0.540314	-0.609311	-0.383501	0.421002	-0.740033	-0.393698	0.382251	-0.734104	-0.333249	0.371019	-0.748605	-0.331378	0.415082	-0.753129	-0.442949	0.155035	-0.667635	-0.314575	0.066931	-0.758690	-0.254421	0.074564	-0.704284	-0.232890	0.061884	-0.717504	
504	2.5200	-0.362793	1.570061	-0.532786	-0.309168	1.569055	-0.704947	-0.330990	1.567672	-0.347726	-0.211021	1.526467	-0.529223	-0.216012	1.058020	-0.412858	-0.218866	1.063619	-0.652053	-0.292065	1.133489	-0.366761	-0.286649	1.131639	-0.694933	-0.387669	1.124564	-0.486184	-0.389980	1.129789	-0.574801	-0.387022	1.130229	-0.527713	-0.311986	0.872507	-0.340019	-0.303115	0.813830	-0.333298	-0.238764	0.822194	-0.326890	-0.240384	0.883590	-0.334793	-0.289264	0.544560	-0.357335	-0.258070	0.531666	-0.473868	-0.366766	0.428481	-0.342237	-0.377201	0.388422	-0.352388	-0.317780	0.378264	-0.343774	-0.310518	0.417487	-0.337865	-0.429701	0.162632	-0.436500	-0.304897	0.062237	-0.357545	-0.243946	0.071559	-0.414061	-0.219059	0.061679	-0.403133	-0.325393	0.881494	-0.728792	-0.310583	0.822599	-0.740567	-0.247266	0.833832	-0.747305	-0.253234	0.892981	-0.736842	-0.311550	0.553830	-0.726561	-0.270683	0.541943	-0.609246	-0.383500	0.422644	-0.739379	-0.393716	0.383900	-0.733429	-0.333380	0.372580	-0.748302	-0.331463	0.416646	-0.752808	-0.442628	0.156175	-0.666890	-0.314286	0.069297	-0.759150	-0.253894	0.076906	-0.705073	-0.232371	0.064381	-0.718473	
505	2.5250	-0.363049	1.571347	-0.532589	-0.309518	1.570545	-0.704690	-0.331060	1.568906	-0.347492	-0.210600	1.527922	-0.528888	-0.216071	1.059324	-0.412968	-0.219035	1.064888	-0.651888	-0.291806	1.134912	-0.366745	-0.286589	1.133011	-0.694870	-0.387772	1.126331	-0.486146	-0.390166	1.131533	-0.574774	-0.387148	1.132016	-0.527674	-0.311583	0.873891	-0.339772	-0.302752	0.815233	-0.333142	-0.238344	0.823442	-0.327399	-0.239928	0.884835	-0.335205	-0.289221	0.545785	-0.357565	-0.258644	0.533058	-0.474216	-0.366830	0.429783	-0.342290	-0.377263	0.389779	-0.352440	-0.317863	0.379536	-0.344009	-0.310579	0.418740	-0.338084	-0.429973	0.163642	-0.436514	-0.304681	0.064355	-0.356914	-0.243789	0.073450	-0.413568	-0.218858	0.063667	-0.402613	-0.324943	0.882726	-0.729005	-0.310076	0.823822	-0.740687	-0.246723	0.835027	-0.746999	-0.252714	0.894141	-0.736557	-0.311345	0.555144	-0.726441	-0.270190	0.543375	-0.609246	-0.383599	0.424121	-0.738626	-0.393803	0.385389	-0.732649	-0.333611	0.374007	-0.748023	-0.331680	0.418066	-0.752496	-0.442441	0.157238	-0.666223	-0.314104	0.071264	-0.759295	-0.253542	0.078985	-0.705473	-0.231999	0.066581	-0.718987	
506	2.5300	-0.363288	1.572418	-0.532402	-0.309859	1.571735	-0.704490	-0.331098	1.569863	-0.347203	-0.210261	1.529097	-0.528602	-0.216138	1.060374	-0.413074	-0.219214	1.065891	-0.651722	-0.291575	1.136043	-0.366692	-0.286578	1.134042	-0.694793	-0.387916	1.127770	-0.486085	-0.390365	1.132933	-0.574716	-0.387301	1.133455	-0.527610	-0.311114	0.875010	-0.339518	-0.302290	0.816396	-0.332957	-0.237845	0.824481	-0.327925	-0.239411	0.885856	-0.335632	-0.289184	0.546851	-0.357787	-0.259213	0.534234	-0.474566	-0.366893	0.430963	-0.342334	-0.377348	0.390999	-0.352477	-0.317973	0.380650	-0.344230	-0.310655	0.419821	-0.338298	-0.430348	0.164506	-0.436414	-0.304588	0.066069	-0.356544	-0.243787	0.075062	-0.413375	-0.218791	0.065391	-0.402439	-0.324406	0.883647	-0.729280	-0.309444	0.824748	-0.740866	-0.246061	0.835962	-0.746703	-0.252120	0.895046	-0.736284	-0.311177	0.556261	-0.726353	-0.269609	0.544609	-0.609302	-0.383795	0.425426	-0.737821	-0.393962	0.386699	-0.731813	-0.333922	0.375292	-0.747767	-0.332009	0.419336	-0.752198	-0.442381	0.158199	-0.665609	-0.313952	0.072927	-0.759189	-0.253318	0.080774	-0.705470	-0.231755	0.068533	-0.719079	
507	2.5350	-0.363507	1.573285	-0.532220	-0.310186	1.572626	-0.704348	-0.331106	1.570539	-0.346862	-0.210058	1.529996	-0.528383	-0.216205	1.061187	-0.413170	-0.219395	1.066645	-0.651561	-0.291397	1.136903	-0.366600	-0.286629	1.134753	-0.694703	-0.388107	1.128891	-0.486006	-0.390571	1.133990	-0.574628	-0.387477	1.134546	-0.527523	-0.310587	0.875890	-0.339251	-0.301743	0.817334	-0.332759	-0.237286	0.825305	-0.328465	-0.238847	0.886666	-0.336076	-0.289166	0.547761	-0.357997	-0.259808	0.535202	-0.474921	-0.366968	0.432002	-0.342363	-0.377460	0.392087	-0.352476	-0.318116	0.381611	-0.344423	-0.310740	0.420763	-0.338507	-0.430821	0.165207	-0.436216	-0.304531	0.067447	-0.356398	-0.243909	0.076472	-0.413497	-0.218853	0.066855	-0.402599	-0.323813	0.884290	-0.729595	-0.308713	0.825406	-0.741083	-0.245307	0.836665	-0.746411	-0.251473	0.895720	-0.736012	-0.311038	0.557176	-0.726297	-0.268973	0.545631	-0.609404	-0.384063	0.426540	-0.737021	-0.394177	0.387819	-0.730974	-0.334293	0.376408	-0.747526	-0.332415	0.420439	-0.751920	-0.442439	0.159006	-0.665027	-0.313775	0.074340	-0.758835	-0.253198	0.082371	-0.705151	-0.231562	0.070245	-0.718797	
508	2.5400	-0.363710	1.573943	-0.532042	-0.310490	1.573225	-0.704267	-0.331086	1.570945	-0.346470	-0.209971	1.530625	-0.528212	-0.216269	1.061773	-0.413250	-0.219574	1.067162	-0.651406	-0.291293	1.137506	-0.366481	-0.286746	1.135178	-0.694610	-0.388337	1.129692	-0.485909	-0.390781	1.134701	-0.574514	-0.387672	1.135286	-0.527418	-0.310017	0.876537	-0.338983	-0.301138	0.818028	-0.332597	-0.236679	0.825912	-0.329011	-0.238260	0.887270	-0.336542	-0.289169	0.548500	-0.358198	-0.260442	0.535962	-0.475290	-0.367062	0.432887	-0.342359	-0.377619	0.392986	-0.352450	-0.318295	0.382398	-0.344586	-0.310864	0.421497	-0.338676	-0.431396	0.165728	-0.435940	-0.304499	0.068520	-0.356492	-0.244143	0.077662	-0.413919	-0.219004	0.068125	-0.403086	-0.323178	0.884676	-0.729927	-0.307915	0.825816	-0.741319	-0.244491	0.837153	-0.746116	-0.250798	0.896182	-0.735742	-0.310901	0.557895	-0.726266	-0.268313	0.546444	-0.609540	-0.384359	0.427450	-0.736269	-0.394423	0.388743	-0.730172	-0.334692	0.377329	-0.747294	-0.332842	0.421340	-0.751659	-0.442610	0.159651	-0.664481	-0.313601	0.075557	-0.758299	-0.253139	0.083769	-0.704559	-0.231422	0.071715	-0.718180	
509	2.5450	-0.363902	1.574392	-0.531866	-0.310766	1.573534	-0.704246	-0.331038	1.571086	-0.346035	-0.210087	1.531013	-0.528122	-0.216329	1.062131	-0.413310	-0.219750	1.067457	-0.651265	-0.291289	1.137855	-0.366334	-0.286937	1.135339	-0.694517	-0.388599	1.130174	-0.485797	-0.390996	1.135071	-0.574373	-0.387878	1.135690	-0.527294	-0.309422	0.876959	-0.338717	-0.300503	0.818454	-0.332474	-0.236051	0.826308	-0.329567	-0.237667	0.887673	-0.337026	-0.289196	0.549053	-0.358393	-0.261120	0.536511	-0.475662	-0.367183	0.433591	-0.342317	-0.377828	0.393686	-0.352384	-0.318512	0.383001	-0.344719	-0.311008	0.422037	-0.338825	-0.432069	0.166056	-0.435590	-0.304446	0.069339	-0.356770	-0.244467	0.078629	-0.414599	-0.219229	0.069174	-0.403875	-0.322530	0.884830	-0.730257	-0.307075	0.826001	-0.741558	-0.243640	0.837446	-0.745818	-0.250122	0.896458	-0.735471	-0.310733	0.558402	-0.726259	-0.267660	0.547040	-0.609694	-0.384643	0.428150	-0.735596	-0.394677	0.389463	-0.729442	-0.335087	0.378025	-0.747067	-0.333251	0.422016	-0.751427	-0.442869	0.160125	-0.663978	-0.313424	0.076529	-0.757601	-0.253131	0.084934	-0.703751	-0.231334	0.072950	-0.717326	
510	2.5500	-0.364082	1.574631	-0.531693	-0.311013	1.573560	-0.704280	-0.330964	1.570964	-0.345564	-0.210518	1.531155	-0.528164	-0.216382	1.062267	-0.413351	-0.219922	1.067540	-0.651133	-0.291391	1.137955	-0.366170	-0.287197	1.135252	-0.694427	-0.388858	1.130324	-0.485669	-0.391208	1.135100	-0.574221	-0.388081	1.135756	-0.527152	-0.308819	0.877169	-0.338462	-0.299855	0.818658	-0.332404	-0.235429	0.826486	-0.330133	-0.237088	0.887872	-0.337521	-0.289228	0.549395	-0.358582	-0.261821	0.536840	-0.476034	-0.367325	0.434090	-0.342230	-0.378077	0.394169	-0.352270	-0.318754	0.383391	-0.344833	-0.311172	0.422373	-0.338963	-0.432821	0.166188	-0.435183	-0.304411	0.069884	-0.357216	-0.244859	0.079377	-0.415477	-0.219514	0.069993	-0.404930	-0.321885	0.884765	-0.730573	-0.306221	0.825980	-0.741785	-0.242785	0.837554	-0.745515	-0.249463	0.896552	-0.735195	-0.310512	0.558695	-0.726265	-0.267028	0.547411	-0.609853	-0.384879	0.428631	-0.735022	-0.394908	0.389953	-0.728809	-0.335444	0.378470	-0.746843	-0.333586	0.422445	-0.751221	-0.443189	0.160415	-0.663501	-0.313284	0.077219	-0.756802	-0.253188	0.085806	-0.702786	-0.231285	0.073915	-0.716294	
